<svg xmlns="http://www.w3.org/2000/svg" width="64" height="64" viewBox="0 0 64 64"><rect width="64" height="64" rx="12" fill="#0d1117"/><rect x="12" y="12" width="9" height="9" rx="2" fill="#58a6ff"/><rect x="22" y="12" width="9" height="9" rx="2" fill="#58a6ff"/><rect x="32" y="12" width="9" height="9" rx="2" fill="#1e2a3a"/><rect x="42" y="12" width="9" height="9" rx="2" fill="#58a6ff"/><rect x="12" y="22" width="9" height="9" rx="2" fill="#1e2a3a"/><rect x="22" y="22" width="9" height="9" rx="2" fill="#58a6ff"/><rect x="32" y="22" width="9" height="9" rx="2" fill="#58a6ff"/><rect x="42" y="22" width="9" height="9" rx="2" fill="#1e2a3a"/><rect x="12" y="32" width="9" height="9" rx="2" fill="#58a6ff"/><rect x="22" y="32" width="9" height="9" rx="2" fill="#1e2a3a"/><rect x="32" y="32" width="9" height="9" rx="2" fill="#58a6ff"/><rect x="42" y="32" width="9" height="9" rx="2" fill="#58a6ff"/><rect x="12" y="42" width="9" height="9" rx="2" fill="#1e2a3a"/><rect x="22" y="42" width="9" height="9" rx="2" fill="#1e2a3a"/><rect x="32" y="42" width="9" height="9" rx="2" fill="#58a6ff"/><rect x="42" y="42" width="9" height="9" rx="2" fill="#1e2a3a"/></svg>