<svg xmlns="http://www.w3.org/2000/svg" width="512" height="512" viewBox="0 0 512 512"><rect width="512" height="512" rx="96" fill="#0d1117"/><rect x="96" y="96" width="69" height="69" rx="15" fill="#58a6ff"/><rect x="176" y="96" width="69" height="69" rx="15" fill="#58a6ff"/><rect x="256" y="96" width="69" height="69" rx="15" fill="#1e2a3a"/><rect x="336" y="96" width="69" height="69" rx="15" fill="#58a6ff"/><rect x="96" y="176" width="69" height="69" rx="15" fill="#1e2a3a"/><rect x="176" y="176" width="69" height="69" rx="15" fill="#58a6ff"/><rect x="256" y="176" width="69" height="69" rx="15" fill="#58a6ff"/><rect x="336" y="176" width="69" height="69" rx="15" fill="#1e2a3a"/><rect x="96" y="256" width="69" height="69" rx="15" fill="#58a6ff"/><rect x="176" y="256" width="69" height="69" rx="15" fill="#1e2a3a"/><rect x="256" y="256" width="69" height="69" rx="15" fill="#58a6ff"/><rect x="336" y="256" width="69" height="69" rx="15" fill="#58a6ff"/><rect x="96" y="336" width="69" height="69" rx="15" fill="#1e2a3a"/><rect x="176" y="336" width="69" height="69" rx="15" fill="#1e2a3a"/><rect x="256" y="336" width="69" height="69" rx="15" fill="#58a6ff"/><rect x="336" y="336" width="69" height="69" rx="15" fill="#1e2a3a"/></svg>